OpenSim_Sub08_CSStiffKnee_RCS.mot
version=1
nRows=67
nColumns=11
inDegrees=no
endheader
time	Top_Thigh	Med_Thigh	Bot_Thigh	Top_Shank	2nd_Top_Shank	2nd_Bot_Shank	Bot_Shank	BNOx	BNOy	BNOZ
26.41000000	1665.30602086	1664.25254355	1314.99428762	1309.83938042	1315.11847637	1314.82144299	1168.03243218	63.80043679	-59.84518753	112.41122864
26.42000000	1662.49877727	1661.32416780	1315.18164594	1309.53612054	1315.50512186	1314.25443987	1168.24922208	62.96205502	-60.55958168	110.61221710
26.43000000	1659.07098728	1657.84502753	1315.62648790	1309.55059005	1315.87211278	1313.74000481	1168.60960701	61.88541074	-61.53723993	108.69659258
26.44000000	1655.20450632	1653.97336477	1316.25048190	1309.83138835	1316.21041961	1313.29014249	1169.08279259	60.60722727	-62.72602695	106.98671341
26.45000000	1651.08118983	1649.86742157	1316.97529633	1310.32711483	1316.51101283	1312.91685761	1169.63798445	59.16422789	-64.07380747	105.80493791
26.46000000	1646.88289323	1645.68543997	1317.72259961	1310.98636889	1316.76486290	1312.63215484	1170.24438822	57.59313593	-65.52844617	105.47362441
26.47000000	1642.79147196	1641.58566201	1318.41406013	1311.75774993	1316.96294029	1312.44803887	1170.87120952	55.93067467	-67.03780777	106.31513122
26.48000000	1638.98878145	1637.72632974	1318.97134630	1312.58985734	1317.09621547	1312.37651439	1171.48765398	54.21356744	-68.54975697	108.65181667
26.49000000	1635.65667713	1634.26568521	1319.31612652	1313.43129052	1317.15565892	1312.42958608	1172.06292723	52.47853752	-70.01215847	112.80603909
26.50000000	1632.97701443	1631.36197046	1319.37006919	1314.23064887	1317.13224110	1312.61925862	1172.56623490	50.76230823	-71.37287698	119.10015680
26.51000000	1631.13164879	1629.17342752	1319.05484272	1314.93653178	1317.01693249	1312.95753671	1172.96678261	49.10160287	-72.57977719	127.85652812
26.52000000	1630.24648219	1627.80888065	1318.32397484	1315.50701445	1316.81174360	1313.44300712	1173.23914422	47.53051852	-73.59076397	139.03047471
26.53000000	1630.14477680	1627.10986404	1317.30331346	1315.95142459	1316.57839813	1314.00168221	1173.38692915	46.06894760	-74.41804714	150.59209795
26.54000000	1630.54794263	1626.82795657	1316.17670007	1316.29633870	1316.39871598	1314.53514972	1173.42351861	44.73200199	-75.09211262	159.84338170
26.55000000	1631.17731293	1626.71466935	1315.12801989	1316.56834629	1316.35453221	1314.94497897	1173.36230119	43.53478999	-75.64346012	164.08580636
26.56000000	1631.75422097	1626.52151346	1314.34115813	1316.79403689	1316.52768186	1315.13273929	1173.21666546	42.49241990	-76.10258935	160.62085233
26.57000000	1632	1626.00000000	1314	1317.00000000	1317.00000000	1315.00000000	1173.00000000	41.62000000	-76.50000000	146.75000000
26.58000000	1631.69567684	1624.96319901	1314.23456428	1317.20678138	1317.81805532	1314.48248951	1172.72539624	40.91094730	-76.85997791	120.75375674
26.59000000	1630.86105252	1623.47041633	1314.95940405	1317.41075179	1318.88735112	1313.65257250	1172.40475696	40.27191368	-77.18195344	84.82873781
26.60000000	1629.57562166	1621.64251676	1316.03520598	1317.60223821	1320.07812436	1312.61677273	1172.04968781	39.58785970	-77.45914307	42.15058546
26.61000000	1627.91887886	1619.60036509	1317.32265672	1317.77156764	1321.26061198	1311.48161395	1171.67179440	38.74374595	-77.68476330	-4.10505808
26.62000000	1625.97031872	1617.46482610	1318.68244291	1317.90906709	1322.30505094	1310.35361993	1171.28268238	37.62453301	-77.85203061	-50.76255058
26.63000000	1623.80943584	1615.35676459	1319.97525123	1318.00506355	1323.08167817	1309.33931441	1170.89395737	36.11518147	-77.95416149	-94.64624979
26.64000000	1621.51572483	1613.39704536	1321.06176833	1318.04988400	1323.46073065	1308.54522116	1170.51722501	34.10065189	-77.98437242	-132.58051348
26.65000000	1619.16868028	1611.70653319	1321.80268087	1318.03385546	1323.31244531	1308.07786393	1170.16409093	31.46590487	-77.93587990	-161.38969940
26.66000000	1616.84758034	1610.40135945	1322.06385916	1317.94779205	1322.51546234	1308.03890751	1169.84597150	28.11922593	-77.80224646	-178.03392285
26.67000000	1614.62672423	1609.48878680	1321.83039798	1317.79371205	1321.14169646	1308.41826040	1169.56993010	24.50537445	-77.58499373	-182.59572238
26.68000000	1612.57543232	1608.86720919	1321.20661651	1317.58483789	1319.45633692	1309.09407479	1169.33867713	21.60558363	-77.29360242	-178.28005975
26.69000000	1610.76280848	1608.43028713	1320.30201762	1317.33487913	1317.73297620	1309.93964392	1169.15473372	20.42441164	-76.93789928	-168.42765430
26.70000000	1609.25795660	1608.07168114	1319.22610418	1317.05754532	1316.24520679	1310.82826102	1169.02062100	21.96641664	-76.52771109	-156.37922532
26.71000000	1608.11999692	1607.69306510	1318.08088406	1316.76623168	1315.23838328	1311.64474453	1168.93822086	27.11666979	-76.07240383	-145.17999287
26.72000000	1607.33426432	1607.25533654	1316.91297251	1316.47201009	1314.74916474	1312.35909143	1168.90469071	35.87715862	-75.57793817	-135.69125269
26.73000000	1606.85302291	1606.74593723	1315.74415763	1316.18491113	1314.72067221	1312.97947594	1168.91507047	47.85406998	-75.04874846	-127.79545921
26.74000000	1606.62838077	1606.15243412	1314.59611041	1315.91496045	1315.09558558	1313.51425238	1168.96439005	62.65172373	-74.48926188	-121.37044967
26.75000000	1606.61244600	1605.46239419	1313.49050183	1315.67218371	1315.81658468	1313.97177507	1169.04767939	79.87443972	-73.90390559	-116.29406132
26.76000000	1606.75732668	1604.66338441	1312.44900290	1315.46660657	1316.82634939	1314.36039832	1169.15996839	99.12653781	-73.29710677	-112.44413139
26.77000000	1607.01513092	1603.74297174	1311.49328461	1315.30825470	1318.06755955	1314.68847645	1169.29628698	120.01233788	-72.67329258	-109.69849714
26.78000000	1607.33796680	1602.68872315	1310.64501795	1315.20715376	1319.48289502	1314.96436378	1169.45166509	142.13615976	-72.03689019	-107.93499581
26.79000000	1607.67794241	1601.48820561	1309.92587390	1315.17332939	1321.01503566	1315.19641461	1169.62113262	165.10232333	-71.39232677	-107.03146463
26.80000000	1607.98716585	1600.12898608	1309.35752346	1315.21680728	1322.60666133	1315.39298327	1169.79971951	188.51514843	-70.74402949	-106.86574087
26.81000000	1608.21774522	1598.59863154	1308.96163763	1315.34761307	1324.20045187	1315.56242407	1169.98245567	211.97895494	-70.09642551	-107.31566175
26.82000000	1608.32178859	1596.88470895	1308.75988739	1315.57577242	1325.73908716	1315.71309132	1170.16437102	235.09806271	-69.45394201	-108.25906452
26.83000000	1608.25140408	1594.97478528	1308.77394374	1315.91131100	1327.16524704	1315.85333934	1170.34049548	257.47679159	-68.82100616	-109.57378643
26.84000000	1607.95869976	1592.85642750	1309.02547767	1316.36425447	1328.42161138	1315.99152246	1170.50585898	278.71946146	-68.20204512	-111.13766472
26.85000000	1607.39578373	1590.51720258	1309.53616017	1316.94462848	1329.45086002	1316.13599497	1170.65549144	298.43039215	-67.60148606	-112.82853664
26.86000000	1606.51476409	1587.94467747	1310.32766223	1317.66245870	1330.19567284	1316.29511120	1170.78442277	316.21390355	-67.02375615	-114.52423943
26.87000000	1605.26774892	1585.12641916	1311.42165485	1318.52777079	1330.59872967	1316.47722547	1170.88768290	331.67431550	-66.47328256	-116.10261033
26.88000000	1603.60684633	1582.04999461	1312.83980901	1319.55059040	1330.60271038	1316.69069208	1170.96030175	344.41594786	-65.95449246	-117.44148658
26.89000000	1601.48416440	1578.70297078	1314.60379571	1320.74094320	1330.15029483	1316.94386536	1170.99730923	354.04312049	-65.47181302	-118.41870544
26.90000000	1598.88256570	1575.09737052	1316.71812951	1322.09677051	1329.20041656	1317.23969291	1170.99413317	360.24474178	-65.02945968	-118.93275641
26.91000000	1596.01220764	1571.42596080	1319.06052822	1323.52670290	1327.83213400	1317.54116334	1170.94914205	363.33488219	-64.63008317	-119.03476216
26.92000000	1593.18512184	1567.96251867	1321.45187899	1324.89934156	1326.17834592	1317.79335554	1170.86202237	363.90781166	-64.27563288	-118.84425598
26.93000000	1590.71382045	1564.98120330	1323.71280089	1326.08309888	1324.37220505	1317.94126390	1170.73246687	362.55912183	-63.96805491	-118.48109387
26.94000000	1588.91081565	1562.75617386	1325.66391298	1326.94638725	1322.54686412	1317.92988283	1170.56016827	359.88440436	-63.70929535	-118.06513182
26.95000000	1588.08861958	1561.56158950	1327.12583433	1327.35761906	1320.83547585	1317.70420672	1170.34481929	356.47925089	-63.50130030	-117.71622583
26.96000000	1588.55974441	1561.67160940	1327.91918402	1327.18520668	1319.37119298	1317.20922998	1170.08611267	352.93925305	-63.34601583	-117.55423187
26.97000000	1590.60001586	1563.32499021	1327.88752600	1326.31967176	1318.27552088	1316.40066005	1169.78604778	349.83751661	-63.24573857	-117.68872260
26.98000000	1594.10652308	1566.39500658	1327.11129839	1324.87978334	1317.54972216	1315.34480168	1169.47043707	347.51501167	-63.20638372	-118.12310944
26.99000000	1598.75292096	1570.53931838	1325.81068239	1323.11896420	1317.12412263	1314.17320611	1169.17914143	346.17576076	-63.23600127	-118.79817434
27	1604.20997653	1575.41279871	1324.20766531	1321.29237750	1316.92813126	1313.01826786	1168.95220332	346.02201636	-63.34266878	-119.65388981
27.01000000	1610.14845682	1580.67032067	1322.52423450	1319.65518637	1316.89115703	1312.01238147	1168.82966518	347.25603098	-63.53446384	-120.63022833
27.02000000	1616.23912886	1585.96675734	1320.98237729	1318.46255399	1316.94260889	1311.28794147	1168.85156948	350.08005712	-63.81946403	-121.66716242
27.03000000	1622.15319038	1590.95750597	1319.80362036	1317.96901732	1317.01200163	1310.97701609	1169.05780790	354.69399955	-64.20569130	-122.70476300
27.04000000	1627.65314627	1595.40908028	1319.11183235	1318.29636704	1317.05128155	1311.14249654	1169.45630868	360.80004530	-64.68937593	-123.70397151
27.05000000	1632.70521977	1599.33590963	1318.81299385	1319.27021919	1317.06244264	1311.69293101	1169.98368542	366.98990742	-65.24043949	-124.67229425
27.06000000	1637.30319854	1602.78596801	1318.78360378	1320.67611548	1317.05425066	1312.51598404	1170.56690238	371.70504456	-65.82524374	-125.62353804
27.07000000	1641.44087026	1605.80722936	1318.90016108	1322.29959760	1317.03547140	1313.49932019	1171.13292382	373.38691534	-66.41015050	-126.57150967
